<svg width="12" height="9" viewBox="0 0 12 9" fill="none" xmlns="http://www.w3.org/2000/svg">
<path d="M6 2.45455C6.43399 2.45455 6.85021 2.62695 7.15708 2.93383C7.46396 3.2407 7.63636 3.65692 7.63636 4.09091C7.63636 4.5249 7.46396 4.94112 7.15708 5.24799C6.85021 5.55487 6.43399 5.72727 6 5.72727C5.56601 5.72727 5.14979 5.55487 4.84292 5.24799C4.53604 4.94112 4.36364 4.5249 4.36364 4.09091C4.36364 3.65692 4.53604 3.2407 4.84292 2.93383C5.14979 2.62695 5.56601 2.45455 6 2.45455ZM6 0C8.72727 0 11.0564 1.69636 12 4.09091C11.0564 6.48545 8.72727 8.18182 6 8.18182C3.27273 8.18182 0.943636 6.48545 0 4.09091C0.943636 1.69636 3.27273 0 6 0ZM1.18909 4.09091C2.08909 5.92364 3.94909 7.09091 6 7.09091C8.05091 7.09091 9.91091 5.92364 10.8109 4.09091C9.91091 2.25818 8.05091 1.09091 6 1.09091C3.94909 1.09091 2.08909 2.25818 1.18909 4.09091Z" fill="#8B8B8B"/>
</svg>
