<svg width="12" height="10" viewBox="0 0 12 10" fill="none" xmlns="http://www.w3.org/2000/svg">
<path d="M0.545455 0.692727L1.24364 0L10.3636 9.12L9.67091 9.81818L7.99091 8.13818C7.36364 8.34545 6.69818 8.45455 6 8.45455C3.27273 8.45455 0.943636 6.75818 0 4.36364C0.376364 3.40364 0.976364 2.55818 1.74 1.88727L0.545455 0.692727ZM6 2.72727C6.43399 2.72727 6.85021 2.89967 7.15708 3.20655C7.46396 3.51343 7.63636 3.92965 7.63636 4.36364C7.63636 4.55455 7.60364 4.74 7.54364 4.90909L5.45455 2.82C5.62364 2.76 5.80909 2.72727 6 2.72727ZM6 0.272727C8.72727 0.272727 11.0564 1.96909 12 4.36364C11.5527 5.49818 10.7945 6.48 9.81818 7.19455L9.04364 6.41455C9.78545 5.90182 10.3964 5.20364 10.8109 4.36364C9.91091 2.53091 8.05091 1.36364 6 1.36364C5.40545 1.36364 4.82182 1.46182 4.27636 1.63636L3.43636 0.801818C4.22182 0.463636 5.08909 0.272727 6 0.272727ZM1.18909 4.36364C2.08909 6.19636 3.94909 7.36364 6 7.36364C6.37636 7.36364 6.74727 7.32546 7.09091 7.24909L5.84727 6C5.06727 5.91818 4.44545 5.29636 4.36364 4.51636L2.50909 2.65636C1.96909 3.12 1.51636 3.69818 1.18909 4.36364Z" fill="#8B8B8B"/>
</svg>
