<svg width="14" height="12" viewBox="0 0 14 12" fill="none" xmlns="http://www.w3.org/2000/svg">
<path d="M0.636364 0.808182L1.45091 0L12.0909 10.64L11.2827 11.4545L9.32273 9.49454C8.59091 9.73636 7.81455 9.86364 7 9.86364C3.81818 9.86364 1.10091 7.88455 0 5.09091C0.439091 3.97091 1.13909 2.98455 2.03 2.20182L0.636364 0.808182ZM7 3.18182C7.50632 3.18182 7.99191 3.38295 8.34993 3.74098C8.70796 4.099 8.90909 4.58459 8.90909 5.09091C8.90909 5.31364 8.87091 5.53 8.80091 5.72727L6.36364 3.29C6.56091 3.22 6.77727 3.18182 7 3.18182ZM7 0.318182C10.1818 0.318182 12.8991 2.29727 14 5.09091C13.4782 6.41455 12.5936 7.56 11.4545 8.39364L10.5509 7.48364C11.4164 6.88545 12.1291 6.07091 12.6127 5.09091C11.5627 2.95273 9.39273 1.59091 7 1.59091C6.30636 1.59091 5.62545 1.70545 4.98909 1.90909L4.00909 0.935454C4.92545 0.540909 5.93727 0.318182 7 0.318182ZM1.38727 5.09091C2.43727 7.22909 4.60727 8.59091 7 8.59091C7.43909 8.59091 7.87182 8.54636 8.27273 8.45727L6.82182 7C5.91182 6.90455 5.18636 6.17909 5.09091 5.26909L2.92727 3.09909C2.29727 3.64 1.76909 4.31455 1.38727 5.09091Z" fill="#8B8B8B"/>
</svg>
