<svg width="14" height="15" viewBox="0 0 14 15" fill="none" xmlns="http://www.w3.org/2000/svg">
<path d="M5.2 0.750244C6.57913 0.750244 7.90177 1.2981 8.87696 2.27329C9.85214 3.24848 10.4 4.57112 10.4 5.95024C10.4 7.23824 9.928 8.42224 9.152 9.33424L9.368 9.55024H10L14 13.5502L12.8 14.7502L8.8 10.7502V10.1182L8.584 9.90224C7.672 10.6782 6.488 11.1502 5.2 11.1502C3.82087 11.1502 2.49823 10.6024 1.52304 9.6272C0.547855 8.65201 0 7.32937 0 5.95024C0 4.57112 0.547855 3.24848 1.52304 2.27329C2.49823 1.2981 3.82087 0.750244 5.2 0.750244ZM5.2 2.35024C3.2 2.35024 1.6 3.95024 1.6 5.95024C1.6 7.95024 3.2 9.55024 5.2 9.55024C7.2 9.55024 8.8 7.95024 8.8 5.95024C8.8 3.95024 7.2 2.35024 5.2 2.35024Z" fill="black"/>
</svg>
