<svg width="12" height="7" viewBox="0 0 12 7" fill="none" xmlns="http://www.w3.org/2000/svg">
<path d="M10.5 6.5H7.5V5H6.65C6.1 6.2 4.85 7 3.5 7C1.55 7 0 5.45 0 3.5C0 1.55 1.55 0 3.5 0C4.85 0 6.1 0.8 6.65 2H12V5H10.5V6.5ZM8.5 5.5H9.5V4H11V3H5.95L5.85 2.65C5.5 1.65 4.55 1 3.5 1C2.1 1 1 2.1 1 3.5C1 4.9 2.1 6 3.5 6C4.55 6 5.5 5.35 5.85 4.35L5.95 4H8.5V5.5ZM3.5 5C2.65 5 2 4.35 2 3.5C2 2.65 2.65 2 3.5 2C4.35 2 5 2.65 5 3.5C5 4.35 4.35 5 3.5 5ZM3.5 3C3.2 3 3 3.2 3 3.5C3 3.8 3.2 4 3.5 4C3.8 4 4 3.8 4 3.5C4 3.2 3.8 3 3.5 3Z" fill="#8B8B8B"/>
</svg>
