<svg width="14" height="12" viewBox="0 0 14 12" fill="none" xmlns="http://www.w3.org/2000/svg">
<path d="M7 3.28998C7.50632 3.28998 7.99191 3.49647 8.34993 3.86405C8.70796 4.23162 8.90909 4.73015 8.90909 5.24998C8.90909 5.7698 8.70796 6.26833 8.34993 6.63591C7.99191 7.00348 7.50632 7.20998 7 7.20998C6.49368 7.20998 6.00809 7.00348 5.65007 6.63591C5.29204 6.26833 5.09091 5.7698 5.09091 5.24998C5.09091 4.73015 5.29204 4.23162 5.65007 3.86405C6.00809 3.49647 6.49368 3.28998 7 3.28998ZM7 0.349976C10.1818 0.349976 12.8991 2.38184 14 5.24998C12.8991 8.11811 10.1818 10.15 7 10.15C3.81818 10.15 1.10091 8.11811 0 5.24998C1.10091 2.38184 3.81818 0.349976 7 0.349976ZM1.38727 5.24998C2.43727 7.44518 4.60727 8.84331 7 8.84331C9.39273 8.84331 11.5627 7.44518 12.6127 5.24998C11.5627 3.05478 9.39273 1.65664 7 1.65664C4.60727 1.65664 2.43727 3.05478 1.38727 5.24998Z" fill="#8B8B8B"/>
</svg>
